<svg xmlns="http://www.w3.org/2000/svg" viewBox="0 0 841.89 595.28">
  <path fill="#280E0E" d="M461.757 182.038c.171-2.108.267-4.24.267-6.399 0-37.771-26.754-68.389-59.757-68.389-33.002 0-59.752 30.619-59.752 68.389 0 2.234.104 4.439.287 6.618-.252 25.669-19.2 25.743-19.2 25.743s10.06 32.917 48.157 12.805l-.179-.242c9.874-2.219 21.522-8.438 33.169-8.438 11.134 0 20.887 5.059 29.169 7.239l-1.066 1.441C470.949 240.917 481.01 208 481.01 208s-19.111.178-19.253-25.962z" />
  <path fill="#CD6634" d="M240.314 478.69h333.153l9.086-108.428H231.251z" />
  <path fill="#A98B30" d="M443.503 213.254s39.283-8.547 23.336 33.85l-15.066 44.138-8.971 6.758h-9.852l-6.097-16.504-10.788-29.447-3.754-20.879 6.099-9.524 25.093-8.392zm-78.625 0s-39.282-8.547-23.334 33.85l15.068 44.138 8.971 6.759h9.85l6.096-16.504 10.79-29.447 3.753-20.879-6.1-9.524-25.094-8.393z" />
  <path fill="#9FC5C1" d="M409.698 225.143l-24.591 1.376s-20.17.001-23.452 30.021l-1.523 16.706-.704 4.222 3.635 8.385 8.912 2.347 17.589 1.641 12.195.47 15.479.706 13.885-2.584-1.123-2.347v-6.156c0-4.222 1.74-5.279 1.74-5.279 6.686-4.047 7.865-13.902 7.865-13.902 5.628 5.805 9.953 23.211 9.953 23.211-7.914 6.508-20.694 7.549-20.694 7.549l1.092 14.916c30.078 0 35.567-19.942 35.567-19.942.526-16.944-20.311-43.382-30.893-55.682 0 0-6.327-6.494-14.203-5.722l-10.729.064z" />
  <path fill="#F79868" d="M272.115 282l-40.864 88.262h351.302L542.047 282z" />
  <path fill="#FFF" d="M387.75 225.596l8.159 15.366-20.47 4.222zm32.911 0l-8.157 15.366 20.471 4.222z" />
  <path fill="#FFF" d="M420.156 228l-15.901 26.622-16.001-24.391.84-.836.136-1.395z" />
  <path fill="#E0B28D" d="M387.079 228.231s13.53 7.116 34.352-2.251c0 0-4.635 12.739-16.147 13.303-13.506.659-18.205-11.052-18.205-11.052z" />
  <radialGradient id="a" cx="388.498" cy="175.089" r="60.928" gradientUnits="userSpaceOnUse">
    <stop offset=".005" stop-color="#ead0be" />
    <stop offset=".204" stop-color="#ead0be" />
    <stop offset="1" stop-color="#eac29d" />
  </radialGradient>
  <path fill="url(#a)" d="M450.31 178.589c0 29.038-21.493 52.577-48.006 52.577-26.512 0-48.002-23.539-48.002-52.577 0-29.035 21.49-52.572 48.002-52.572 26.512 0 48.006 23.537 48.006 52.572z" />
  <path fill="#280E0E" d="M351.559 183.869l-1.831-17.012 3.658-12.19 5.792-3.965s1.524-3.657 3.049-5.792c1.523-2.133 4.877-5.485 7.006-8.531 2.134-3.047 8.535-6.707 10.668-8.228 2.136-1.525 10.059-4.574 11.888-5.184 1.83-.608 26.518.609 26.518.609l18.894 8.229s12.496 17.371 12.799 18.287c.31.912-.605 6.094-.605 6.094l-3.914-.567c-15.547-29.563-43.634-1.87-43.634-1.87s-34.704 34.058-50.288 30.12z" />
  <path fill="#C97049" d="M363.475 309.36l-3.431 6.305-57.472 5.086-36.738 9.666-1.925 2.987 67.02 19.169 2.29-8.268c5.454 3.869 39.225 7.563 39.225 7.563 8.971-6.332 23.221-45.73 23.221-45.73l8.267-5.627 4.279-6.325L413.368 282h-45.143l-4.691 26.317" />
  <path fill="#F2F2F3" d="M303.497 255.597s48.779 0 73.169-12.663c0 0 23.452 29.082 17.354 61.445l-55.345-11.257s-6.099-33.304-35.178-37.525z" />
  <path fill="#E1E2E2" d="M266.91 325.311l-4.573 5.276 66.837 20.228 4.75-13.018s-32.188-7.388-32.893-7.388-22.514-2.637-22.514-2.637l-11.607-2.461z" />
  <path fill="#F2F2F3" d="M319.5 293.298l-19.522-8.267-40.278 40.103 66.311 20.58 2.99-8.971s3.694-14.599 3.694-15.127-.881-17.413-.881-17.413l-3.693-5.982-8.621-4.923z" />
  <path fill="#C7C9C9" d="M307.482 326.895l-5.864 3.986s47.374 17.592 70.124 18.059c0 0 21.808-41.512 22.278-44.561l-53.236-8.441-33.302 30.957z" />
  <path fill="#E1E2E2" d="M328.121 303.207s-18.292 17.825-29.55 22.045c0 0 29.782 13.604 70.121 16.418 0 0 23.921-33.071 25.328-37.291l-55.345-11.257-10.554 10.085z" />
  <path fill="#CACBCB" d="M349.109 294.296l8.795.585s-1.64 31.424-37.17 15.36l5.98-5.511 15.711-5.861 6.684-4.573z" />
  <path d="M322.491 287.964l-32.363-18.997 9.146-10.32 26.266 26.736z" />
  <radialGradient id="b" cx="334.236" cy="296.454" r="15.573" gradientUnits="userSpaceOnUse">
    <stop offset=".005" stop-color="#ead0be" />
    <stop offset=".204" stop-color="#ead0be" />
    <stop offset="1" stop-color="#eac29d" />
  </radialGradient>
  <path fill="url(#b)" d="M351.945 301.581c-1.85 6.385-11.276 9.271-21.059 6.44-9.778-2.832-16.207-10.306-14.359-16.691 1.848-6.39 11.276-9.272 21.054-6.444 9.781 2.834 16.211 10.306 14.364 16.695z" />
  <path fill="#FFF" d="M272.692 389.54c0-3.213 2.659-5.761 5.761-5.761 3.212 0 5.982 2.548 5.982 5.761v52.287c0 5.982-2.437 11.41-6.425 15.398-3.877 3.988-9.416 6.425-15.398 6.425-2.437 0-5.207-.221-7.422-.664-2.88-.554-4.764-2.659-4.764-5.317 0-3.545 2.77-5.539 5.428-5.539 1.772 0 3.545.665 6.757.665 2.88 0 5.096-1.108 6.979-2.991 1.883-1.884 3.102-5.096 3.102-7.977V389.54zm64.691 53.506h-27.251l-6.093 16.839c-.886 2.326-2.991 3.766-5.428 3.766-2.991 0-5.65-2.548-5.65-5.76 0-.665.111-1.219.333-1.884l24.371-68.018c.886-2.327 3.324-4.21 6.093-4.21 2.548 0 5.207 1.772 6.093 4.32l24.371 67.907c.222.554.333 1.329.333 1.884 0 2.99-2.437 5.76-5.761 5.76a5.835 5.835 0 01-5.428-3.766l-5.983-16.838zm-13.625-37.997l-9.638 26.809h19.276l-9.638-26.809zm96.151 4.32l-16.617 30.132c-1.108 1.994-3.324 3.323-5.65 3.323a6.43 6.43 0 01-5.649-3.323l-16.617-30.132v48.41c0 3.213-2.77 5.871-5.871 5.871-3.213 0-5.871-2.658-5.871-5.871v-67.575c0-3.545 2.991-6.425 6.425-6.425 2.548 0 4.653 1.44 5.761 3.434l21.823 38.994 21.823-38.994c1.108-1.993 3.435-3.434 5.761-3.434a6.43 6.43 0 016.425 6.425v67.575c0 3.213-2.77 5.871-5.981 5.871-3.102 0-5.761-2.658-5.761-5.871v-48.41zm38.546 20.494v27.916c0 3.213-2.77 5.871-5.871 5.871-3.213 0-5.871-2.658-5.871-5.871V389.65c0-3.213 2.658-5.871 5.871-5.871 3.102 0 5.871 2.658 5.871 5.871v25.146l26.255-29.135c1.107-1.218 2.77-1.883 4.32-1.883 2.991 0 5.649 2.438 5.649 5.761a5.558 5.558 0 01-1.439 3.767l-26.588 29.023 28.027 31.794a5.549 5.549 0 011.44 3.767c0 2.99-2.548 5.76-5.761 5.76-1.551 0-3.213-.664-4.32-1.994l-27.583-31.793zm89.173-40.213c0-3.213 2.659-5.871 5.872-5.871 3.102 0 5.871 2.658 5.871 5.871v46.416c0 16.507-11.078 27.584-27.584 27.584s-27.584-11.077-27.584-27.584V389.65c0-3.213 2.77-5.871 5.981-5.871 3.103 0 5.761 2.658 5.761 5.871v47.081c0 10.081 5.761 16.063 15.842 16.063s15.841-5.982 15.841-16.063V389.65z" />
  <path fill="#A7AFB7" d="M455.666 334.458l-9.76-.995 7.984-17.028 9.506.514z" />
  <path fill="#C97049" d="M441.877 348.313l-8.178 11.437 58.61 3.416 57.839-6.312 6.22-41.085-23.759.292-35.149 2.858-27.792 14.697z" />
  <path fill="#A7AFB7" d="M430.768 352.21s-.44 2.406.961 3.249l58.515 4.719s1.108.104 1.7-.345c.35-.266.776-1.187.776-1.187l16.724-55.788s-.095-1.966-2.017-2.3l-4.671 5.582-11.623 15.979-36.472 20.291-23.893 9.8z" />
  <path fill="#DFE2E8" d="M492.27 355.846c-.352 1.162-1.631 2.04-2.842 1.95l-57.108-4.284c-1.212-.091-1.747-1.05-1.194-2.131l26.11-50.854c.555-1.082 2.002-1.928 3.216-1.883l46.295 1.764c1.214.045 1.923 1.037 1.569 2.199l-16.046 53.239z" />
  <path fill="#A7AFB7" d="M508.359 302.619c.328-1.17 1.511-2.514 2.631-2.986l43.018-18.146c1.12-.473 1.836.115 1.595 1.306l-12.539 61.449c-.245 1.191-1.401 2.429-2.572 2.754l-46.146 12.754c-1.172.322-1.862-.371-1.535-1.542l15.548-55.589z" />
  <path fill="#DFE2E8" d="M510.486 303.214c.147-.522.861-1.334 1.363-1.546l41.19-17.375-12.142 59.508c-.077.374-.627.961-.997 1.063l-44.506 12.302 15.092-53.952z" />
  <path fill="#A7AFB7" d="M484.694 352.598l-24.476-1.736 18.044-46.388 21.655.598z" />
  <path fill="#FFF" d="M523.165 329.968c-.285 1.18-1.199 2.338-2.025 2.57-.828.234-1.265-.539-.972-1.72l4.052-16.298c.292-1.179 1.199-2.396 2.014-2.705.815-.308 1.247.406.959 1.586l-4.028 16.567z" />
  <path fill="#9FC5C1" d="M449.578 283.984c-7.914 6.508-20.694 7.549-20.694 7.549l1.092 14.916c30.078 0 35.567-19.942 35.567-19.942.045-1.43-.075-2.932-.315-4.481h-16.173c.338 1.216.523 1.958.523 1.958z" />
  <radialGradient id="c" cx="417.757" cy="299.981" r="14.756" gradientUnits="userSpaceOnUse">
    <stop offset=".005" stop-color="#ead0be" />
    <stop offset=".204" stop-color="#ead0be" />
    <stop offset="1" stop-color="#eac29d" />
  </radialGradient>
  <path fill="url(#c)" d="M435.195 298.927c.382 6.288-7.119 11.856-16.752 12.444-9.627.582-17.743-4.045-18.125-10.334-.382-6.293 7.117-11.862 16.748-12.446 9.632-.585 17.748 4.046 18.129 10.336z" />
</svg>